<svg width="24" height="24" viewBox="0 0 24 24" fill="none" xmlns="http://www.w3.org/2000/svg">
<g clip-path="url(#clip0_1118_2558)">
<rect width="24" height="24" rx="4" fill="url(#paint0_linear_1118_2558)"/>
<path d="M5.07441 6.18774C5.09483 6.18781 5.073 6.18791 5.04303 6.18798C5.03374 6.188 4.9922 6.18799 4.98391 6.188C4.96776 6.18803 4.98813 6.18806 4.96889 6.18809C4.96231 6.1881 4.89651 6.18809 4.89112 6.1881C4.86204 6.18815 4.8788 6.18821 4.86481 6.18826C4.7958 6.18854 4.7711 6.18882 4.74112 6.1891C4.73129 6.1892 4.67157 6.18931 4.69769 6.18941C4.7008 6.18942 4.75855 6.18941 4.76331 6.18941C4.83619 6.18945 4.71959 6.18943 4.7041 6.18946C4.64293 6.18954 4.63761 6.18964 4.6599 6.18972C4.66955 6.18976 4.78427 6.18972 4.71988 6.18976C4.71553 6.18976 4.6542 6.18975 4.64766 6.18976C4.63294 6.18979 4.64391 6.18983 4.63905 6.18985C4.62937 6.18988 4.62999 6.18988 4.62929 6.18992C4.6278 6.18996 4.59731 6.19001 4.61121 6.19006C4.61436 6.19007 4.67723 6.19005 4.68793 6.19007C4.69861 6.19008 4.69328 6.19012 4.67846 6.19014C4.66363 6.19015 4.61421 6.19015 4.60289 6.19015C4.50728 6.19017 4.6397 6.19022 4.64297 6.19022C4.69877 6.19034 4.62334 6.19043 4.62355 6.19054C4.62387 6.19062 4.64878 6.1907 4.64536 6.19078C4.64105 6.19087 4.60698 6.19095 4.61284 6.19104C4.61338 6.19105 4.68731 6.19103 4.68812 6.19105C4.69673 6.19117 4.68867 6.19129 4.63876 6.19141C4.63369 6.19142 4.56878 6.1914 4.55984 6.19142C4.5065 6.19149 4.37836 6.19161 4.66095 6.19165C4.64992 6.1917 4.63852 6.19176 4.58155 6.19181C4.54489 6.19183 4.47418 6.19181 4.50435 6.19184C4.51108 6.19185 4.573 6.19184 4.5784 6.19185C4.60107 6.1919 4.58094 6.19196 4.61293 6.19201C4.61958 6.19202 4.67507 6.19201 4.68506 6.19202C4.76598 6.19204 4.63222 6.19208 4.6225 6.19209C4.55002 6.19216 4.57854 6.19221 4.57677 6.19227C4.57633 6.19228 4.65086 6.19227 4.65311 6.19228C4.66379 6.19235 4.65739 6.19243 4.62432 6.1925C4.61678 6.19251 4.55329 6.1925 4.54645 6.19251C4.51702 6.19254 4.63693 6.19255 4.61102 6.19258C4.60571 6.19259 4.55136 6.19258 4.54539 6.19258C4.4517 6.1926 4.58446 6.19262 4.58739 6.19262C4.62744 6.19269 4.48884 6.19272 4.50847 6.19278C4.51096 6.19279 4.57972 6.19278 4.58251 6.1928C4.60149 6.19293 4.5826 6.19307 4.5276 6.19321C4.51914 6.19323 4.46748 6.19321 4.46111 6.19321C4.36161 6.19323 4.49493 6.19325 4.49995 6.19325C4.5361 6.19331 4.42429 6.19336 4.58308 6.19339C4.52798 6.19362 4.61715 6.19384 4.47489 6.19407C4.47324 6.19407 4.40758 6.19407 4.40458 6.19407C4.36771 6.19414 4.46976 6.19413 4.59456 6.19417C4.6259 6.19418 4.47522 6.19422 4.46418 6.19422C4.42347 6.19423 4.32579 6.19422 4.31791 6.19422C4.25601 6.19425 4.57906 6.19425 4.57916 6.19429C4.57862 6.19429 4.51916 6.19429 4.51325 6.19429C4.49469 6.1943 4.51832 6.19431 4.49785 6.19432C4.45049 6.19435 4.29351 6.19436 4.38487 6.19439C4.39673 6.1944 4.57997 6.19439 4.57132 6.19443C4.56771 6.19444 4.57085 6.19451 4.55898 6.19453C4.54712 6.19455 4.48807 6.19453 4.48551 6.19453C4.40742 6.19458 4.37506 6.19456 4.25946 6.19459C4.14429 6.19461 4.41898 6.19461 4.44963 6.19462C4.48021 6.19463 4.41578 6.19466 4.39339 6.19467C4.37098 6.19468 4.33346 6.19467 4.32078 6.19468C4.23794 6.19473 4.45712 6.1947 4.50072 6.19472C4.60395 6.19476 4.40024 6.19479 4.38028 6.19483C4.37489 6.19484 4.42128 6.19483 4.42562 6.19484C4.44219 6.19488 4.37863 6.1949 4.43691 6.19494C4.44641 6.19495 4.56888 6.19498 4.479 6.195C4.46604 6.195 4.41528 6.19499 4.40391 6.19501C4.38684 6.19503 4.37575 6.19507 4.39272 6.1951C4.40527 6.19512 4.48892 6.19509 4.46293 6.19512C4.45133 6.19513 4.4024 6.19511 4.38468 6.19513C4.36697 6.19515 4.36912 6.19519 4.37081 6.19521C4.37254 6.19523 4.43599 6.19522 4.44026 6.19522C4.46475 6.19523 4.49534 6.19527 4.49527 6.19527C4.50301 6.19543 4.39606 6.19557 4.43146 6.19572C4.43414 6.19574 4.50105 6.19573 4.50215 6.19573C4.53019 6.19577 4.35229 6.19574 4.29275 6.19577C4.42853 6.19576 4.40394 6.19578 4.41883 6.19581C4.42612 6.19582 4.47869 6.19582 4.48407 6.19582C4.56393 6.19584 4.46079 6.19585 4.43969 6.19586C4.36207 6.19587 4.45378 6.19588 4.4019 6.19589C4.35041 6.1959 4.27407 6.19588 4.27505 6.19591C4.32365 6.19592 4.45067 6.1959 4.47125 6.19592C4.54912 6.196 4.44946 6.19614 4.43911 6.19621C4.42877 6.19627 4.43774 6.19629 4.42017 6.19633C4.38841 6.1964 4.48265 6.19637 4.52578 6.19641C4.56891 6.19646 4.33704 6.19644 4.2872 6.19644C4.23738 6.19645 4.28866 6.19645 4.26127 6.19646C4.23389 6.19647 4.2 6.19645 4.18972 6.19647C4.17945 6.19649 4.26808 6.19653 4.3202 6.19654C4.43062 6.19655 4.54651 6.19653 4.50579 6.19658C4.50337 6.19658 4.4424 6.19657 4.43624 6.19658C4.38931 6.19666 4.3864 6.19674 4.34488 6.19682C4.33908 6.19683 4.27125 6.19682 4.26711 6.19683C4.22373 6.1969 4.33809 6.19687 4.46513 6.19691C4.29607 6.1969 4.19263 6.19692 4.19163 6.19697C4.19097 6.197 4.26481 6.197 4.31685 6.19702C4.33254 6.19702 4.28184 6.19704 4.31657 6.19705C4.43008 6.19706 4.55715 6.19704 4.50655 6.19709C4.50415 6.19709 4.44201 6.19709 4.43825 6.19709C4.41362 6.19715 4.53235 6.19715 4.54673 6.19721C4.55802 6.19725 4.48561 6.19733 4.47384 6.19737C4.28376 6.19737 4.32728 6.19742 4.45834 6.19744C4.45297 6.19747 4.46038 6.1975 4.44227 6.19754C4.43609 6.19755 4.38106 6.19754 4.37511 6.19754C4.28183 6.19756 4.40934 6.19757 4.41434 6.19758C4.46293 6.19766 4.36629 6.19772 4.46073 6.19779C4.46413 6.19779 4.59617 6.19779 4.49976 6.19781C4.49312 6.19781 4.43304 6.19779 4.4284 6.19782C4.42374 6.19786 4.35296 6.19792 4.41414 6.19797C4.42887 6.19798 4.53606 6.19801 4.45231 6.19803C4.44094 6.19803 4.40307 6.19803 4.382 6.19803C4.31486 6.19805 4.44831 6.19806 4.33494 6.19807C4.22156 6.19809 4.13666 6.19812 4.21488 6.19817C4.21715 6.19817 4.32293 6.19818 4.32126 6.1982C4.31849 6.19822 4.29646 6.19825 4.29715 6.19828C4.29752 6.19829 4.3632 6.19828 4.3644 6.19828C4.4012 6.19836 4.34265 6.19842 4.31724 6.1985C4.31245 6.19852 4.40202 6.19856 4.3312 6.19859C4.25369 6.19863 3.93123 6.19859 4.00805 6.19867C4.03878 6.1987 4.44788 6.19874 4.23592 6.19879C4.28844 6.1989 4.17997 6.199 4.25496 6.1991C4.25828 6.19911 4.37246 6.19912 4.3709 6.19914C4.36838 6.19915 4.31501 6.19916 4.3115 6.19917C4.29542 6.19922 4.34108 6.19927 4.33398 6.19932C4.3314 6.19934 4.27622 6.19933 4.27314 6.19935C4.2701 6.19937 4.34276 6.19939 4.30767 6.19942C4.28092 6.19944 4.13241 6.19946 4.1151 6.19949C4.26159 6.19949 4.25857 6.19951 4.29724 6.19955C4.30475 6.19956 4.35573 6.19955 4.36191 6.19955C4.38819 6.19957 4.34593 6.19958 4.37454 6.19959C4.38141 6.19959 4.43144 6.19959 4.43988 6.1996C4.51355 6.19962 4.40102 6.19965 4.38143 6.19966C4.30702 6.19968 4.37208 6.19969 4.34278 6.19971C4.31348 6.19973 4.27685 6.1997 4.25907 6.19972C4.2223 6.19977 4.23038 6.19982 4.22808 6.19987C4.22747 6.19989 4.29425 6.19987 4.29571 6.19988C4.31265 6.19991 4.24162 6.19995 4.37464 6.19997C4.0307 6.19999 4.408 6.19999 4.33914 6.20004C4.33358 6.20005 4.17093 6.20005 4.14705 6.20004C4.1232 6.20002 4.17404 6.2 4.13682 6.19998C4.12808 6.19997 3.97567 6.19994 3.96644 6.19994C3.89429 6.1999 4.13734 6.1999 4.15069 6.1999C4.29475 6.19988 4.13056 6.19984 4.11922 6.19983C4.06723 6.19979 4.10141 6.19975 4.0643 6.19972C4.04032 6.19969 3.88112 6.19969 3.88599 6.19967C3.9021 6.19961 4.12419 6.19959 3.93162 6.19953C3.89055 6.19952 3.71654 6.19953 3.85337 6.19949C3.86199 6.19948 3.98717 6.19945 3.90799 6.19943C3.89801 6.19943 3.8473 6.19943 3.84304 6.19942C3.81548 6.1994 3.85588 6.19939 3.83653 6.19937C3.81718 6.19934 3.78834 6.19931 3.80554 6.19929C3.81582 6.19927 3.91031 6.19925 3.93344 6.19924C4.00007 6.19922 3.89082 6.1992 3.97151 6.19918C4.05261 6.19917 4.17577 6.1992 4.22818 6.19916C4.09642 6.19916 3.96119 6.19916 3.82869 6.19916C3.83333 6.19908 3.87593 6.199 3.87011 6.19892C3.86926 6.19891 3.79842 6.19892 3.79568 6.19891C3.78443 6.19887 3.83492 6.19883 3.81482 6.19879C3.79898 6.19875 3.72398 6.19871 3.70509 6.19867C3.85585 6.19865 3.80467 6.1986 3.81845 6.19856C3.82321 6.19854 3.86348 6.19855 3.87661 6.19854C3.9252 6.1985 3.79197 6.19852 3.771 6.19851C3.68152 6.19846 3.98308 6.19846 3.97562 6.19841C3.97533 6.1984 3.81459 6.19837 3.80458 6.19837C3.73931 6.19834 3.86053 6.19836 3.8724 6.19834C3.89411 6.19831 3.9325 6.19829 3.88541 6.19825C3.87147 6.19823 3.77128 6.19821 3.84878 6.19819C3.85892 6.19818 3.91205 6.19818 3.91517 6.19818C3.96703 6.19814 3.80009 6.19814 3.74355 6.19811C3.68702 6.19809 3.80226 6.19805 3.83548 6.19804C3.9214 6.19802 3.8722 6.19806 3.88063 6.19806C3.98098 6.19807 3.9637 6.19805 3.97218 6.19802C4.13587 6.19802 4.12605 6.19799 3.98031 6.198C3.96439 6.198 3.97966 6.19802 3.97218 6.19802C3.81158 6.19801 3.79101 6.19797 3.94109 6.19794C4.01143 6.19792 4.09345 6.19794 4.06344 6.19789C4.0499 6.19786 3.93719 6.19787 3.90646 6.19785C3.83635 6.19781 3.94149 6.19775 3.92492 6.1977C3.91891 6.19768 3.85721 6.1977 3.85098 6.19769C3.83423 6.19765 3.88053 6.19763 3.85681 6.1976C3.85458 6.19759 3.79 6.1976 3.78918 6.19759C3.78168 6.19752 3.82304 6.19745 3.82419 6.19737C3.82472 6.19734 3.7891 6.19727 3.79626 6.19723C3.80829 6.19716 3.9022 6.19708 3.87939 6.19702C3.86478 6.19698 3.80019 6.19699 3.75617 6.19698C3.67086 6.19695 3.82368 6.19689 3.84734 6.19688C3.84812 6.19688 3.86335 6.19692 3.89651 6.1969C3.96561 6.19689 3.84764 6.19688 3.84734 6.19688C3.86263 6.19688 3.87729 6.19681 3.86494 6.1968C3.85819 6.19679 3.79699 6.1968 3.79463 6.19679C3.73986 6.19671 3.72431 6.19662 3.75292 6.19653C3.75416 6.19653 3.82262 6.19654 3.82467 6.19653C3.85511 6.19648 3.77136 6.19645 3.72164 6.19641C3.67194 6.19636 3.68859 6.19633 3.80611 6.19631C3.79131 6.19628 3.84327 6.19623 3.8748 6.1962C3.90632 6.19618 3.77306 6.19617 3.77043 6.19617C3.68611 6.1961 3.76238 6.19606 3.77425 6.19599C3.78013 6.19595 3.7608 6.19588 3.74623 6.19584C3.73449 6.19581 3.76572 6.19579 3.74575 6.19577C3.74308 6.19576 3.68375 6.19577 3.68146 6.19577C3.61047 6.19573 3.75552 6.19575 3.78143 6.19574C3.87564 6.19572 3.92581 6.19571 3.88149 6.19567C3.87134 6.19566 3.66249 6.19563 3.65028 6.19561C3.63478 6.19559 3.70964 6.1956 3.69151 6.19558C3.69002 6.19557 3.64384 6.19558 3.64587 6.19556C3.65472 6.1955 3.68159 6.19543 3.67697 6.19536C3.67651 6.19535 3.60325 6.19536 3.60139 6.19535C3.59271 6.19528 3.59542 6.19522 3.62971 6.19515C3.63838 6.19514 3.68967 6.19515 3.7049 6.19515C3.79705 6.19513 3.66316 6.1951 3.66061 6.19509C3.59627 6.19498 3.71743 6.1949 3.65975 6.19478C3.65636 6.19478 3.51283 6.19473 3.63593 6.19471C3.64412 6.19471 3.77006 6.19468 3.68395 6.19467C3.67856 6.19466 3.61372 6.19468 3.62033 6.19465C3.62693 6.19463 3.58363 6.19459 3.65487 6.19456C3.67731 6.19455 3.80294 6.19453 3.70279 6.1945C3.6958 6.1945 3.46936 6.19445 3.62559 6.19444C3.65131 6.19443 3.81664 6.19444 3.73188 6.1944C3.71544 6.19439 3.67856 6.19441 3.65554 6.19439C3.62005 6.19436 3.66433 6.19432 3.59068 6.19429C3.57764 6.19429 3.46542 6.19426 3.55059 6.19424C3.56393 6.19424 3.61913 6.19424 3.62531 6.19423C3.65494 6.19418 3.61802 6.19413 3.65621 6.19408C3.66963 6.19406 3.75886 6.19407 3.78277 6.19405C3.80667 6.19403 3.82967 6.19399 3.78889 6.19397C3.7481 6.19395 3.60588 6.19398 3.5945 6.19395C3.54508 6.19382 3.62851 6.19369 3.64071 6.19356C3.64253 6.19354 3.59164 6.19356 3.59068 6.19353C3.58689 6.19343 3.53918 6.19325 3.64731 6.19316C3.73392 6.19309 3.79985 6.19318 3.8351 6.19312C3.85191 6.1931 3.68657 6.19307 3.68137 6.19306C3.62849 6.193 3.70173 6.19296 3.67926 6.1929C3.6746 6.19289 3.60759 6.1929 3.60436 6.19289C3.59274 6.19285 3.62265 6.19282 3.61718 6.19279C3.61457 6.19277 3.56339 6.19278 3.56734 6.19276C3.5762 6.19273 3.59771 6.1927 3.64568 6.19267C3.65005 6.19267 3.71372 6.19269 3.71609 6.19266C3.71974 6.19263 3.76707 6.19258 3.7182 6.19253C3.70349 6.19252 3.58652 6.19252 3.6673 6.19249C3.68418 6.19249 3.82464 6.19249 3.70327 6.19246C3.6831 6.19246 3.51941 6.1924 3.62492 6.19237C3.6527 6.19237 3.76764 6.19235 3.74957 6.19233C3.74669 6.19233 3.68386 6.19234 3.67773 6.19233C3.65722 6.19228 3.66393 6.19223 3.64425 6.19219C3.63887 6.19217 3.57385 6.19219 3.56791 6.19217C3.55148 6.19212 3.56803 6.19206 3.58838 6.19201C3.59601 6.19199 3.64987 6.192 3.65573 6.192C3.75106 6.19198 3.62238 6.19197 3.61488 6.19196C3.56995 6.19191 3.6304 6.19188 3.6144 6.19184C3.61015 6.19183 3.54879 6.19183 3.54332 6.19183C3.48987 6.19181 3.60006 6.19183 3.6122 6.19181C3.64659 6.19177 3.64166 6.19172 3.63382 6.19168C3.63085 6.19167 3.55971 6.19168 3.55786 6.19167C3.54561 6.19159 3.55241 6.1915 3.59163 6.19142C3.59915 6.19141 3.65393 6.19142 3.66644 6.19141C3.75398 6.19139 3.63458 6.19136 3.6232 6.19135C3.57127 6.19132 3.61971 6.1913 3.61067 6.19128C3.56565 6.19113 3.59774 6.19095 3.61756 6.19082C3.64307 6.19064 3.69519 6.1905 3.68165 6.19034C3.68086 6.19032 3.60798 6.19034 3.60637 6.19033C3.5888 6.19021 3.61727 6.19009 3.59623 6.18997C3.59463 6.18996 3.52554 6.18997 3.52065 6.18996C3.51014 6.18993 3.5139 6.18989 3.53596 6.18985C3.54659 6.18984 3.60587 6.18986 3.61536 6.18984C3.63758 6.1898 3.64251 6.18976 3.63143 6.18973C3.62657 6.18971 3.55591 6.18973 3.55509 6.18971C3.54808 6.18957 3.53591 6.18943 3.62741 6.18928C3.6337 6.18927 3.7773 6.18926 3.74976 6.18924C3.70991 6.18924 3.66303 6.18924 3.62043 6.18924C3.59748 6.18903 3.64727 6.18882 3.65496 6.18861C3.65527 6.1886 3.57918 6.18862 3.57939 6.1886C3.58051 6.1885 3.55943 6.1884 3.63506 6.1883C3.64246 6.18829 3.77632 6.1883 3.75608 6.18827C3.75238 6.18826 3.73453 6.18822 3.70547 6.1882C3.70109 6.1882 3.63861 6.18821 3.63679 6.1882C3.6273 6.18811 3.64156 6.18802 3.67974 6.18794C3.68602 6.18793 3.75256 6.18794 3.75761 6.18793C3.79293 6.18786 3.74235 6.18779 3.80276 6.18772C3.84344 6.18768 3.95846 6.1877 4.07167 6.18767C4.08764 6.18767 4.09017 6.18764 4.15605 6.18764C4.32168 6.18764 4.50305 6.18765 4.67961 6.18764C4.71764 6.18764 4.67668 6.18761 4.76858 6.18763C4.77473 6.18763 4.80523 6.18766 4.8364 6.18766C4.85795 6.18767 4.92494 6.18766 4.95254 6.18767C4.9801 6.18768 4.92395 6.18769 4.95636 6.1877C4.98918 6.18772 5.06539 6.18771 5.07441 6.18774ZM4.01571 6.19609C4.0797 6.19606 3.84531 6.19606 3.90139 6.19609C3.90438 6.19609 4.01257 6.19609 4.01571 6.19609ZM4.05273 6.199C4.15611 6.19897 4.0041 6.19895 3.92425 6.19897C3.8445 6.19899 4.02139 6.19901 4.05273 6.199ZM4.12821 6.19933C4.20972 6.19929 3.87734 6.19929 3.94453 6.19932C3.94833 6.19933 4.12347 6.19933 4.12821 6.19933ZM4.10391 6.18778C4.10702 6.18778 4.11006 6.18776 4.10697 6.18776C4.03253 6.18775 4.02651 6.18779 4.10391 6.18778ZM4.21038 6.19965C4.25534 6.19964 4.20344 6.19961 4.14753 6.19962C4.10255 6.19963 4.15445 6.19967 4.21038 6.19965ZM4.26587 6.19483C4.26936 6.19483 4.2725 6.19482 4.25276 6.19482C4.18917 6.19482 4.20712 6.19484 4.26587 6.19483ZM4.21421 6.2002C4.22672 6.20012 4.50128 6.20007 4.4703 6.20016C4.46469 6.20018 4.38274 6.20013 4.35799 6.20015C4.31289 6.20018 4.48528 6.20021 4.39291 6.20025C4.376 6.20025 4.21288 6.20021 4.21383 6.2002C4.21395 6.2002 4.21408 6.2002 4.21421 6.2002ZM4.29724 6.19607C4.30034 6.19607 4.30328 6.19605 4.30021 6.19605C4.2258 6.19604 4.21983 6.19608 4.29724 6.19607ZM4.4108 6.19402C4.4174 6.19401 4.42358 6.19397 4.41749 6.19397C4.29581 6.19395 4.28296 6.19404 4.4108 6.19402ZM4.46877 6.19738C4.54363 6.1974 4.55244 6.19742 4.45844 6.19744C4.46343 6.19742 4.46416 6.1974 4.46877 6.19738Z" fill="#A093FF"/>
<g clip-path="url(#clip1_1118_2558)">
<path d="M5.05687 4V13.088L14.0806 4H16.5355L9.83412 11.04L17 20H14.545L8.30806 12.448L5.05687 15.648V20H3V4H5.05687Z" fill="#2A221B"/>
<path d="M48 16.3915L44.5461 17.1589C38.8428 17.395 36.3525 16.8637 30.7295 17.1785C25.2674 18.3394 27.2756 17.9459 24.8657 18.7329C22.4559 19.5199 22.2148 20.6414 18.5197 19.5396C14.8246 18.4377 16.7525 18.5164 16.2705 18.5164C15.5475 18.5164 13.7 19.3822 12.5754 19.4609C10.5672 19.6183 9.28197 19.1461 7.75574 17.9655C6.22951 16.785 7.19345 17.1785 7.19345 17.1785C7.19345 17.1785 5.58704 17.1589 4.70328 17.1785C2.77541 17.1785 0.927869 17.1785 -1 17.1785L2.77557 16.7654L6.71148 16.2341C6.39017 14.5026 6.55082 12.6138 7.59509 11.1184C10.8885 6.47495 18.118 10.2527 12.1738 14.8961C6.22951 19.5396 7.3541 17.0453 7.99673 16.8637C9.68361 19.5396 13.1377 18.6739 15.7082 17.8868C15.3869 17.0211 14.8246 16.4702 14.7443 15.5257C14.423 12.7712 16.9131 9.46565 20.0459 10.0166C23.1787 10.5675 21.7329 10.6265 22.0543 11.2562C23.3395 14.2469 19.6443 16.785 17.3148 18.0442C20.2869 20.484 23.5 18.0442 26.3918 17.1785C29.2836 16.3128 29.4444 16.3718 30.087 16.3718C37.2708 16.3718 47.9197 16.4702 47.9197 16.4702L48 16.3915ZM13.1377 10.2527C12.2541 9.46565 10.7279 9.85916 9.68361 10.2527C7.59508 11.1971 6.7918 13.9517 7.3541 15.998C9.44262 16.3915 15.3869 12.2989 13.0574 10.2527H13.1377ZM19.1623 10.5675C16.1902 10.8036 14.182 15.447 16.5918 17.4933C18.4393 16.7063 21.0902 14.8961 21.1705 12.6925C21.2508 10.4888 20.4475 10.4888 19.1623 10.5675Z" fill="url(#paint1_linear_1118_2558)"/>
</g>
</g>
<defs>
<linearGradient id="paint0_linear_1118_2558" x1="3.6" y1="20.4" x2="20.4" y2="3.6" gradientUnits="userSpaceOnUse">
<stop stop-color="#F7F1EC"/>
<stop offset="1" stop-color="#DFD0C2"/>
</linearGradient>
<linearGradient id="paint1_linear_1118_2558" x1="3.34944" y1="9.69731" x2="6.134" y2="28.7555" gradientUnits="userSpaceOnUse">
<stop stop-color="#FAA958"/>
<stop offset="0.0973825" stop-color="#946434"/>
<stop offset="0.205668" stop-color="#F1E1D0"/>
<stop offset="0.523402" stop-color="#C58545"/>
<stop offset="0.692713" stop-color="#EDD0B4"/>
<stop offset="1" stop-color="#946434"/>
</linearGradient>
<clipPath id="clip0_1118_2558">
<rect width="24" height="24" rx="4" fill="white"/>
</clipPath>
<clipPath id="clip1_1118_2558">
<rect width="24.098" height="24.098" fill="white"/>
</clipPath>
</defs>
</svg>
